<mxfile host="app.diagrams.net" modified="2024-03-27T07:34:29.349Z" agent="Mozilla/5.0 (Windows NT 10.0; Win64; x64) AppleWebKit/537.36 (KHTML, like Gecko) Chrome/122.0.0.0 Safari/537.36 Edg/122.0.0.0" etag="wXdW9g576Kc8E3I2U-jd" version="24.0.7" type="device">
  <diagram name="Page-1" id="KBEaiFNk3rMuaAeFmrGR">
    <mxGraphModel dx="1042" dy="569" grid="1" gridSize="10" guides="1" tooltips="1" connect="1" arrows="1" fold="1" page="1" pageScale="1" pageWidth="850" pageHeight="1100" math="0" shadow="0">
      <root>
        <mxCell id="0" />
        <mxCell id="1" parent="0" />
        <mxCell id="9LwCvAnH0qxk0vJzkE7Z-5" value="Send data for prediction" style="edgeStyle=orthogonalEdgeStyle;rounded=0;orthogonalLoop=1;jettySize=auto;html=1;entryX=0.5;entryY=0;entryDx=0;entryDy=0;" edge="1" parent="1" source="9LwCvAnH0qxk0vJzkE7Z-1" target="9LwCvAnH0qxk0vJzkE7Z-4">
          <mxGeometry relative="1" as="geometry" />
        </mxCell>
        <mxCell id="9LwCvAnH0qxk0vJzkE7Z-1" value="Crop Recommendation Form" style="html=1;align=center;verticalAlign=top;rounded=1;absoluteArcSize=1;arcSize=10;dashed=0;whiteSpace=wrap;" vertex="1" parent="1">
          <mxGeometry x="355" y="170" width="140" height="40" as="geometry" />
        </mxCell>
        <mxCell id="9LwCvAnH0qxk0vJzkE7Z-3" value="Fill data of N, P, K, rainfall, city, pH" style="edgeStyle=orthogonalEdgeStyle;rounded=0;orthogonalLoop=1;jettySize=auto;html=1;entryX=0.5;entryY=0;entryDx=0;entryDy=0;" edge="1" parent="1" source="9LwCvAnH0qxk0vJzkE7Z-2" target="9LwCvAnH0qxk0vJzkE7Z-1">
          <mxGeometry relative="1" as="geometry" />
        </mxCell>
        <mxCell id="9LwCvAnH0qxk0vJzkE7Z-2" value="" style="ellipse;fillColor=strokeColor;html=1;" vertex="1" parent="1">
          <mxGeometry x="410" y="80" width="30" height="30" as="geometry" />
        </mxCell>
        <mxCell id="9LwCvAnH0qxk0vJzkE7Z-7" value="Display predicted crop" style="edgeStyle=orthogonalEdgeStyle;rounded=0;orthogonalLoop=1;jettySize=auto;html=1;entryX=0.5;entryY=0;entryDx=0;entryDy=0;" edge="1" parent="1" source="9LwCvAnH0qxk0vJzkE7Z-4" target="9LwCvAnH0qxk0vJzkE7Z-6">
          <mxGeometry relative="1" as="geometry" />
        </mxCell>
        <mxCell id="9LwCvAnH0qxk0vJzkE7Z-4" value="Random Forest Classifier" style="html=1;align=center;verticalAlign=top;rounded=1;absoluteArcSize=1;arcSize=10;dashed=0;whiteSpace=wrap;" vertex="1" parent="1">
          <mxGeometry x="355" y="260" width="140" height="40" as="geometry" />
        </mxCell>
        <mxCell id="9LwCvAnH0qxk0vJzkE7Z-9" value="Add seed to cart" style="edgeStyle=orthogonalEdgeStyle;rounded=0;orthogonalLoop=1;jettySize=auto;html=1;" edge="1" parent="1" source="9LwCvAnH0qxk0vJzkE7Z-6" target="9LwCvAnH0qxk0vJzkE7Z-8">
          <mxGeometry relative="1" as="geometry" />
        </mxCell>
        <mxCell id="9LwCvAnH0qxk0vJzkE7Z-6" value="Predicted Crop" style="html=1;align=center;verticalAlign=top;rounded=1;absoluteArcSize=1;arcSize=10;dashed=0;whiteSpace=wrap;" vertex="1" parent="1">
          <mxGeometry x="355" y="340" width="140" height="40" as="geometry" />
        </mxCell>
        <mxCell id="9LwCvAnH0qxk0vJzkE7Z-11" style="edgeStyle=orthogonalEdgeStyle;rounded=0;orthogonalLoop=1;jettySize=auto;html=1;entryX=0.5;entryY=0;entryDx=0;entryDy=0;" edge="1" parent="1" source="9LwCvAnH0qxk0vJzkE7Z-8" target="9LwCvAnH0qxk0vJzkE7Z-10">
          <mxGeometry relative="1" as="geometry" />
        </mxCell>
        <mxCell id="9LwCvAnH0qxk0vJzkE7Z-8" value="User&#39;s cart" style="html=1;align=center;verticalAlign=top;rounded=1;absoluteArcSize=1;arcSize=10;dashed=0;whiteSpace=wrap;" vertex="1" parent="1">
          <mxGeometry x="355" y="430" width="140" height="40" as="geometry" />
        </mxCell>
        <mxCell id="9LwCvAnH0qxk0vJzkE7Z-10" value="" style="ellipse;html=1;shape=endState;fillColor=strokeColor;" vertex="1" parent="1">
          <mxGeometry x="410" y="510" width="30" height="30" as="geometry" />
        </mxCell>
      </root>
    </mxGraphModel>
  </diagram>
</mxfile>
